<svg width="40" height="52" viewBox="0 0 40 52" fill="none" xmlns="http://www.w3.org/2000/svg">
<path d="M21.5608 50.9741L39.361 30.6672C39.773 30.1975 40 29.5706 40 28.902C40 28.2335 39.773 27.6065 39.361 27.1369L38.0504 25.6414C37.1964 24.6683 35.8085 24.6683 34.9558 25.6414L20.0083 42.6936L5.04419 25.6225C4.63216 25.1528 4.08289 24.8935 3.49721 24.8935C2.91087 24.8935 2.3616 25.1528 1.94925 25.6225L0.639015 27.118C0.22699 27.588 0 28.2146 0 28.8831C0 29.5517 0.22699 30.1786 0.639015 30.6483L18.4555 50.9741C18.8688 51.4449 19.4207 51.7035 20.0073 51.702C20.5963 51.7035 21.1478 51.4449 21.5608 50.9741Z" fill="#41A53D"/>
<path d="M21.5608 26.0806L39.361 5.77372C39.773 5.30405 40 4.67708 40 4.00855C40 3.34003 39.773 2.71305 39.361 2.24338L38.0504 0.747917C37.1964 -0.225191 35.8085 -0.225191 34.9558 0.747917L20.0083 17.8001L5.04419 0.728996C4.63216 0.259322 4.08289 0 3.49721 0C2.91087 0 2.3616 0.259322 1.94925 0.728996L0.639015 2.22446C0.22699 2.6945 0 3.32111 0 3.98963C0 4.65816 0.22699 5.28513 0.639015 5.7548L18.4555 26.0806C18.8688 26.5514 19.4207 26.81 20.0073 26.8085C20.5963 26.81 21.1478 26.5514 21.5608 26.0806Z" fill="#41A53D"/>
</svg>
