<svg width="40" height="27" viewBox="0 0 40 27" fill="none" xmlns="http://www.w3.org/2000/svg">
<path d="M18.4392 0.727903L0.639019 21.0348C0.22699 21.5045 0 22.1315 0 22.8C0 23.4685 0.22699 24.0955 0.639019 24.5652L1.94958 26.0606C2.80355 27.0337 4.19151 27.0337 5.04419 26.0606L19.9917 9.00841L34.9558 26.0795C35.3678 26.5492 35.9171 26.8085 36.5028 26.8085C37.0891 26.8085 37.6384 26.5492 38.0508 26.0795L39.361 24.5841C39.773 24.114 40 23.4874 40 22.8189C40 22.1504 39.773 21.5234 39.361 21.0537L21.5445 0.727903C21.1312 0.257116 20.5793 -0.00146484 19.9927 2.09808e-05C19.4037 -0.00146484 18.8522 0.257116 18.4392 0.727903Z" fill="white"/>
</svg>
