<svg width="35" height="35" viewBox="0 0 35 35" fill="none" xmlns="http://www.w3.org/2000/svg">
<g clip-path="url(#clip0_0_34)">
<path d="M17.5 21.863C15.0838 21.863 13.125 23.8218 13.125 26.238V34.988H21.875V26.238C21.875 23.8218 19.9162 21.863 17.5 21.863Z" fill="white"/>
<path d="M24.7917 26.2386V34.9886H30.625C33.0412 34.9886 35 33.0299 35 30.6136V17.3122C35.0003 16.5546 34.7059 15.8265 34.1789 15.2822L21.7861 1.88445C19.5994 -0.481471 15.9088 -0.626735 13.5429 1.55995C13.4305 1.66385 13.3222 1.77206 13.2184 1.88445L0.847313 15.2778C0.304403 15.8244 -0.000206882 16.5637 -1.80386e-06 17.3341V30.6136C-1.80386e-06 33.0299 1.95877 34.9886 4.375 34.9886H10.2083V26.2386C10.2356 22.262 13.4462 19.0147 17.3227 18.9212C21.3288 18.8245 24.7611 22.1272 24.7917 26.2386Z" fill="white"/>
<path d="M17.5 21.863C15.0838 21.863 13.125 23.8218 13.125 26.238V34.988H21.875V26.238C21.875 23.8218 19.9162 21.863 17.5 21.863Z" fill="white"/>
</g>
<defs>
<clipPath id="clip0_0_34">
<rect width="35" height="35" fill="white"/>
</clipPath>
</defs>
</svg>
