<svg width="934" height="582" viewBox="0 0 934 582" fill="none" xmlns="http://www.w3.org/2000/svg">
<g style="mix-blend-mode:multiply">
<path d="M302.467 395.661C264.464 376.349 216.627 375.24 174.085 368.492C134.481 362.188 62.3022 334.619 33.4664 304.742C-16.4177 253.112 -13.3917 140.352 61.9462 104.349C148.365 63.0182 256.944 100.93 350.616 113.228C495.106 132.139 526.211 20.7997 666.742 1.66598C720.497 -5.65899 797.215 10.4116 823.558 65.0159C856.978 134.359 812.656 214.001 862.763 279.749C881.497 304.343 1002.8 407.825 879.005 448.578C834.683 463.184 789.205 472.64 743.904 483.427C700.294 493.815 657.931 506.246 618.771 528.354C566.528 557.831 509.079 601.825 448.916 572.126C371.531 533.903 373.044 431.575 302.467 395.705V395.661Z" fill="#911515"/>
</g>
</svg>
