<svg width="40" height="40" viewBox="0 0 40 40" fill="none" xmlns="http://www.w3.org/2000/svg">
<path d="M26.2501 15.875L18.6067 8.23168C18.1377 7.76291 17.5017 7.49965 16.8386 7.4998C16.1756 7.49996 15.5397 7.76352 15.0709 8.23251C14.6021 8.7015 14.3389 9.3375 14.339 10.0006C14.3392 10.6637 14.6027 11.2996 15.0717 11.7683L22.7151 19.41C22.7927 19.4874 22.8542 19.5794 22.8962 19.6806C22.9383 19.7819 22.9599 19.8904 22.9599 20C22.9599 20.1096 22.9383 20.2182 22.8962 20.3194C22.8542 20.4206 22.7927 20.5126 22.7151 20.59L15.0717 28.2317C14.6027 28.7004 14.3392 29.3363 14.339 29.9994C14.3389 30.6625 14.6021 31.2985 15.0709 31.7675C15.5397 32.2365 16.1756 32.5001 16.8386 32.5002C17.5017 32.5004 18.1377 32.2371 18.6067 31.7683L26.2501 24.125C27.3421 23.03 27.9554 21.5465 27.9554 20C27.9554 18.4535 27.3421 16.9701 26.2501 15.875Z" fill="white"/>
</svg>
