<svg width="733" height="438" viewBox="0 0 733 438" fill="none" xmlns="http://www.w3.org/2000/svg">
<path d="M714.248 0H18.3552C8.24123 0 0.0422363 9.40524 0.0422363 21.0072V416.993C0.0422363 428.595 8.24123 438 18.3552 438H714.248C724.362 438 732.561 428.595 732.561 416.993V21.0072C732.561 9.40524 724.362 0 714.248 0Z" fill="white"/>
<path d="M714.247 0.525162H18.3551C8.49402 0.525162 0.5 9.69527 0.5 21.0072V416.993C0.5 428.305 8.49402 437.475 18.3551 437.475H714.247C724.109 437.475 732.103 428.305 732.103 416.993V21.0072C732.103 9.69527 724.109 0.525162 714.247 0.525162Z" stroke="#41A53D"/>
</svg>
