<svg width="994" height="620" viewBox="0 0 994 620" fill="none" xmlns="http://www.w3.org/2000/svg">
<g style="mix-blend-mode:multiply">
<path d="M321.898 421.495C281.454 400.922 230.543 399.74 185.269 392.552C143.12 385.836 66.3046 356.468 35.6163 324.64C-17.4724 269.639 -14.252 149.516 65.9257 111.162C157.896 67.1328 273.45 107.52 373.139 120.62C526.912 140.767 560.015 22.1578 709.573 1.77476C766.782 -6.02848 848.428 11.0914 876.464 69.261C912.03 143.132 864.861 227.974 918.187 298.014C938.125 324.214 1067.22 434.453 935.473 477.867C888.304 493.426 839.903 503.499 791.693 514.992C745.281 526.058 700.196 539.3 658.521 562.851C602.922 594.254 541.783 641.12 477.754 609.482C395.398 568.763 397.008 459.754 321.898 421.542V421.495Z" fill="#41A52D"/>
</g>
</svg>
