<svg width="24" height="30" viewBox="0 0 24 30" fill="none" xmlns="http://www.w3.org/2000/svg">
<path d="M12.5106 29.5776L22.8392 17.7945C23.0783 17.522 23.21 17.1582 23.21 16.7703C23.21 16.3824 23.0783 16.0186 22.8392 15.7461L22.0787 14.8783C21.5832 14.3137 20.7778 14.3137 20.2831 14.8783L11.6098 24.7728L2.92692 14.8673C2.68784 14.5948 2.36913 14.4443 2.02928 14.4443C1.68906 14.4443 1.37035 14.5948 1.13109 14.8673L0.370825 15.7351C0.131746 16.0078 3.62396e-05 16.3714 3.62396e-05 16.7593C3.62396e-05 17.1472 0.131746 17.511 0.370825 17.7836L10.7088 29.5776C10.9486 29.8507 11.2688 30.0008 11.6092 29.9999C11.951 30.0008 12.271 29.8507 12.5106 29.5776Z" fill="white"/>
<path d="M12.5106 15.1332L22.8392 3.35019C23.0783 3.07767 23.21 2.71387 23.21 2.32595C23.21 1.93804 23.0783 1.57424 22.8392 1.30172L22.0787 0.433977C21.5832 -0.130667 20.7778 -0.130667 20.2831 0.433977L11.6098 10.3285L2.92692 0.422999C2.68784 0.150471 2.36913 0 2.02928 0C1.68906 0 1.37035 0.150471 1.13109 0.422999L0.370825 1.29074C0.131746 1.56348 3.62396e-05 1.92707 3.62396e-05 2.31498C3.62396e-05 2.70289 0.131746 3.06669 0.370825 3.33921L10.7088 15.1332C10.9486 15.4064 11.2688 15.5565 11.6092 15.5556C11.951 15.5565 12.271 15.4064 12.5106 15.1332Z" fill="white"/>
</svg>
