<svg width="13" height="10" viewBox="0 0 13 10" fill="none" xmlns="http://www.w3.org/2000/svg">
<path d="M7.00726 8.90536L12.7923 1.97147C12.9262 1.81109 13 1.59701 13 1.36874C13 1.14047 12.9262 0.926386 12.7923 0.766013L12.3664 0.25538C12.0888 -0.0768926 11.6378 -0.0768926 11.3606 0.25538L6.50269 6.07794L1.63936 0.248919C1.50545 0.0885469 1.32694 0 1.13659 0C0.94603 0 0.767519 0.0885469 0.633503 0.248919L0.207678 0.759553C0.0737677 0.920052 -3.8147e-06 1.13401 -3.8147e-06 1.36228C-3.8147e-06 1.59055 0.0737677 1.80463 0.207678 1.96501L5.99802 8.90536C6.13235 9.06611 6.31171 9.15441 6.50238 9.1539C6.69378 9.15441 6.87303 9.06611 7.00726 8.90536Z" fill="#3E3E3E"/>
</svg>
