<svg width="35" height="35" viewBox="0 0 35 35" fill="none" xmlns="http://www.w3.org/2000/svg">
<path d="M21.1594 22.7273L27.4916 16.0394C27.8799 15.629 28.0894 15.0812 28.0738 14.5164C28.0582 13.9517 27.819 13.4162 27.4086 13.0279C26.9982 12.6395 26.4504 12.4301 25.8856 12.4457C25.3209 12.4612 24.7854 12.7005 24.397 13.1109L18.0663 19.7987C18.0022 19.8666 17.9253 19.9212 17.84 19.9594C17.7548 19.9975 17.6629 20.0184 17.5695 20.021C17.4761 20.0235 17.3832 20.0076 17.296 19.9742C17.2088 19.9408 17.129 19.8905 17.0613 19.8262L10.3748 13.494C9.9646 13.1055 9.41688 12.8958 8.85209 12.9111C8.28731 12.9264 7.75174 13.1654 7.3632 13.5756C6.97466 13.9858 6.76497 14.5335 6.78027 15.0983C6.79557 15.6631 7.0346 16.1986 7.44478 16.5872L14.1327 22.9193C15.0908 23.824 16.3685 24.3118 17.6858 24.2758C19.003 24.2398 20.2522 23.6829 21.1594 22.7273Z" fill="#41A53D"/>
</svg>
