<svg width="657" height="131" viewBox="0 0 657 131" fill="none" xmlns="http://www.w3.org/2000/svg">
<path d="M506.234 46.7614L508.127 33.8611H535.4L537.045 22.6526H497.26L484.445 108.229H497.01L504.636 57.2725H530.913L525.029 96.9192H537.642L545.12 46.7577H506.234V46.7614ZM200.51 46.7614L202.406 33.8611H229.677L231.321 22.6526H191.541L178.727 108.229H191.29L198.919 57.2725H225.192L219.258 96.9192H231.921L239.399 46.7577H200.51V46.7614ZM380.593 94.6812L382.641 85.2644C387.247 86.8634 392.074 87.7374 396.949 87.8553C402.433 87.8553 403.577 86.959 404.078 83.4727C404.524 80.3851 403.927 79.2376 396.348 75.5525C385.48 70.2736 384.131 66.4381 385.329 58.8671C386.725 48.8024 390.716 45.6653 404.078 45.6653C409.221 45.781 414.323 46.6205 419.232 48.159L417.49 57.6226C413.185 56.4209 408.748 55.7515 404.279 55.6292C399.295 55.6292 397.798 55.8776 397.299 59.4647C396.802 62.8556 397.701 63.5989 403.334 66.5857C415.249 72.8177 417.393 74.8074 416.245 82.7276C414.652 93.9361 410.909 97.8192 396.604 97.8192C391.129 97.6785 385.716 96.6177 380.593 94.6812ZM422.624 94.6812L424.718 85.2644C429.288 86.8721 434.083 87.7465 438.925 87.8553C444.51 87.8553 445.558 86.959 446.155 83.4727C446.504 80.3851 446.003 79.2376 438.328 75.5525C427.46 70.2736 426.211 66.4381 427.309 58.8671C428.805 48.8024 432.692 45.6653 446.054 45.6653C451.199 45.7768 456.302 46.6164 461.211 48.159L459.47 57.6226C455.163 56.4283 450.727 55.759 446.259 55.6292C441.272 55.6292 439.825 55.8776 439.278 59.4647C438.778 62.8556 439.779 63.5989 445.41 66.5857C457.224 72.8177 459.373 74.8074 458.275 82.7276C456.631 93.9361 452.989 97.8192 438.682 97.8192C433.192 97.6829 427.765 96.622 422.629 94.6812H422.624ZM581.613 94.6812L583.711 85.2644C588.298 86.8719 593.109 87.7463 597.968 87.8553C603.452 87.8553 604.647 86.959 605.151 83.4727C605.547 80.3851 604.949 79.2376 597.421 75.5525C586.503 70.2736 585.204 66.4381 586.352 58.8671C587.747 48.8024 591.736 45.6653 605.05 45.6653C610.211 45.7811 615.33 46.6205 620.258 48.159L618.516 57.6226C614.209 56.4281 609.773 55.7588 605.306 55.6292C600.318 55.6292 598.824 55.8776 598.324 59.4647C597.827 62.8556 598.724 63.5989 604.405 66.5857C616.273 72.8177 618.368 74.8074 617.271 82.7276C615.677 93.9361 611.934 97.8192 597.677 97.8192C592.188 97.6777 586.762 96.617 581.624 94.6812H581.613ZM581.019 57.0241C575.135 60.2125 571.544 62.6018 566.262 65.9881L561.673 96.9229H549.061L556.439 47.5569L567.26 45.9127L567.008 53.239C570.945 50.2822 575.212 47.7912 579.722 45.8156L581.021 57.0241H581.019ZM364.439 59.2154C364.389 56.9737 362.395 55.2745 359.056 55.2745C353.324 55.2745 350.83 58.7645 350.182 63.4962L349.333 68.6743C351.179 68.1739 351.679 67.976 356.713 66.4326C362.298 64.6922 364.54 62.501 364.439 59.2154ZM347.339 82.2272C346.94 85.016 346.742 87.5061 351.33 87.5061C356.713 87.5061 364.141 85.016 370.622 81.7323L373.616 91.1958C366.427 95.4123 358.268 97.6946 349.934 97.8201C336.472 97.8201 333.527 90.4471 335.025 79.9864L337.368 64.6932C339.214 52.8908 344.497 45.6653 359.805 45.6653C369.521 45.6653 376.157 50.5483 376.405 58.7196C376.754 67.68 370.921 72.8141 357.21 77.0491C351.179 78.8949 350.081 79.2404 347.689 79.7912L347.339 82.2272ZM314.833 61.1079C314.934 60.6075 315.333 57.618 312.09 57.618C308.801 57.618 301.87 60.7056 297.333 63.4972L292.349 96.922H279.682L287.106 47.5092L297.83 45.9155V51.9899C304.308 48.4055 312.188 45.6662 318.068 45.6662C325.049 45.6662 327.741 50.2486 327.892 55.6301C327.963 57.298 327.845 58.9685 327.543 60.6103L322.16 96.9211H309.543L314.83 61.1079H314.833ZM625.638 85.7611L633.368 33.9555L646.28 32.0125L644.088 46.7586H657L655.406 57.2697H642.541L638.305 85.2149C638.104 87.0066 638.802 87.7554 640.597 87.7554C643.188 87.7554 646.43 86.7088 649.324 85.5137L652.311 93.9306C647.434 96.5388 641.99 97.9079 636.459 97.9173C628.582 97.9173 624.645 92.9335 625.638 85.762V85.7611ZM245.182 85.7611L252.911 33.9555L265.873 32.0125L263.628 46.7586H276.643L275.049 57.2697H262.085L257.896 85.2149C257.648 87.0066 258.346 87.7554 260.239 87.7554C262.733 87.7554 266.072 86.7088 268.865 85.5137L271.856 93.9306C267.014 96.5397 261.602 97.9094 256.102 97.9173C248.174 97.9173 244.186 92.9335 245.183 85.762L245.182 85.7611Z" fill="black"/>
<path d="M73.8767 97.0466L88.267 0H29.4352L24.4673 33.6869H47.9043L38.5671 97.0466H15.1374L10.0696 130.881H92.3431L97.31 97.0466H73.8767ZM96.662 0L91.5942 33.6869H138.418L143.483 0H96.662ZM84.7941 79.6024H109.57L114.286 47.4735H89.6135L84.7978 79.6024H84.7941ZM3.12463 10.0675H1.30247L2.69201 1.57726H0L0.218147 0H7.55082L7.24835 1.57726H4.51418L3.12463 10.0675ZM17.6708 3.52385L14.4628 8.71202H12.2401L11.1567 3.52385L9.52514 10.0675H7.55174L10.0183 0H12.2401L13.7203 6.77184L17.9165 0H20.1383L18.7551 10.0675H16.6818L17.6708 3.52385Z" fill="#DD1A32"/>
</svg>
