<svg width="25" height="25" viewBox="0 0 25 25" fill="none" xmlns="http://www.w3.org/2000/svg">
<path d="M16.4053 9.92188L11.6283 5.1448C11.3351 4.85182 10.9376 4.68728 10.5232 4.68738C10.1088 4.68748 9.71134 4.8522 9.41836 5.14532C9.12538 5.43844 8.96084 5.83594 8.96094 6.25038C8.96104 6.66481 9.12576 7.06224 9.41888 7.35522L14.196 12.1313C14.2445 12.1796 14.2829 12.2371 14.3092 12.3004C14.3355 12.3637 14.349 12.4315 14.349 12.5C14.349 12.5685 14.3355 12.6364 14.3092 12.6996C14.2829 12.7629 14.2445 12.8204 14.196 12.8688L9.41888 17.6448C9.12576 17.9378 8.96104 18.3352 8.96094 18.7496C8.96084 19.1641 9.12538 19.5616 9.41836 19.8547C9.71134 20.1478 10.1088 20.3125 10.5232 20.3126C10.9376 20.3127 11.3351 20.1482 11.6283 19.8552L16.4053 15.0781C17.0879 14.3937 17.4711 13.4666 17.4711 12.5C17.4711 11.5334 17.0879 10.6063 16.4053 9.92188Z" fill="#41A53D"/>
</svg>
